<?xml version="1.0" encoding="UTF-8" standalone="no"?>
<svg
   xmlns:dc="http://purl.org/dc/elements/1.1/"
   xmlns:cc="http://creativecommons.org/ns#"
   xmlns:rdf="http://www.w3.org/1999/02/22-rdf-syntax-ns#"
   xmlns:svg="http://www.w3.org/2000/svg"
   xmlns="http://www.w3.org/2000/svg"
   id="svg8"
   version="1.1"
   viewBox="0 0 6.3499999 6.3500002"
   height="24"
   width="24">
  <defs
     id="defs2" />
  <metadata
     id="metadata5">
    <rdf:RDF>
      <cc:Work
         rdf:about="">
        <dc:format>image/svg+xml</dc:format>
        <dc:type
           rdf:resource="http://purl.org/dc/dcmitype/StillImage" />
        <dc:title></dc:title>
      </cc:Work>
    </rdf:RDF>
  </metadata>
  <g
     transform="translate(0,-290.64998)"
     id="layer1">
    <g
       transform="matrix(0.26458333,0,0,0.26458333,0,290.64998)"
       id="g40">
      <path
         style="fill:#ffffff;stroke-width:1.12122381"
         d="M 12,1 C 7.5885709,1 4.0000001,4.4540001 4.0000001,8.7000003 4.0000001,14.475 12,23 12,23 12,23 20,14.475 20,8.7000003 20,4.4540001 16.411429,1 12,1 Z"
         id="path28-2" />
      <path
         style="fill:none"
         d="M 0,0 H 24 V 24 H 0 Z"
         id="path26" />
      <path
         style="fill:#000000"
         d="M 12,2 C 8.14,2 5,5.14 5,9 c 0,5.25 7,13 7,13 0,0 7,-7.75 7,-13 0,-3.86 -3.14,-7 -7,-7 z"
         id="path28" />
    </g>
  </g>
</svg>
